# xmcd
#
# Track frame offsets:
#	150
#	13265
#	21620
#	42180
#	56408
#	68343
#	83756
#	93248
#	107643
#	118498
#	128725
#	143065
#	153725
#	166530
#	179245
#	191040
#	203328
#	213571
#	243586
#	253858
#	266395
#	277280
#
# Disc length: 3881 seconds
#
# Revision: 1
# Processed by: cddbd v1.5.2PL0 Copyright (c) Steve Scherf et al.
# Submitted via: audiograbber 1.83.01
#
DISCID=450f2716
DTITLE=Various Artist - Chess Blues Guitar [CD2]
DYEAR=1900
DGENRE=
TTITLE0=Won't be hanging aound
TTITLE1=My babe
TTITLE2=I can tell
TTITLE3=Broken hearted blues
TTITLE4=Buddy's boogie
TTITLE5=Leave my girl alone
TTITLE6=I still got the blues
TTITLE7=Cross my heart
TTITLE8=Treat me like I treat you
TTITLE9=Talk to me baby (I can't hold out)
TTITLE10=Watch out
TTITLE11=Hidden charms
TTITLE12=Killing floor
TTITLE13=Rock this house
TTITLE14=She's too much
TTITLE15=Claim on you
TTITLE16=What kind of love is this_
TTITLE17=I can't quit you baby
TTITLE18=One sunny day
TTITLE19=Walking thru the park
TTITLE20=I'm satisified
TTITLE21=Someday
EXTD=
EXTT0=
EXTT1=
EXTT2=
EXTT3=
EXTT4=
EXTT5=
EXTT6=
EXTT7=
EXTT8=
EXTT9=
EXTT10=
EXTT11=
EXTT12=
EXTT13=
EXTT14=
EXTT15=
EXTT16=
EXTT17=
EXTT18=
EXTT19=
EXTT20=
EXTT21=
PLAYORDER=
